<?xml version="1.0" encoding="UTF-8" standalone="no"?>
<!DOCTYPE svg PUBLIC "-//W3C//DTD SVG 1.1//EN" "http://www.w3.org/Graphics/SVG/1.1/DTD/svg11.dtd">
<svg width="100%" height="100%" viewBox="0 0 16 16" version="1.1" xmlns="http://www.w3.org/2000/svg" xmlns:xlink="http://www.w3.org/1999/xlink" xml:space="preserve" xmlns:serif="http://www.serif.com/" style="fill-rule:evenodd;clip-rule:evenodd;stroke-linejoin:round;stroke-miterlimit:2;">
    <path d="M14.999,5.501C15.03,6.619 14.634,7.707 13.891,8.543C13.148,9.38 12.113,9.901 10.999,10.001C10.991,9.658 10.923,9.32 10.799,9.001C11.669,8.911 12.476,8.505 13.066,7.86C13.656,7.215 13.988,6.375 13.999,5.501C13.996,4.599 13.645,3.733 13.02,3.083C12.395,2.433 11.543,2.049 10.642,2.01C9.741,1.971 8.86,2.281 8.181,2.876C7.503,3.47 7.08,4.303 6.999,5.201C6.677,5.086 6.34,5.019 5.999,5.001C6.148,3.906 6.683,2.901 7.509,2.168C8.334,1.434 9.395,1.02 10.499,1.001C11.091,0.998 11.677,1.113 12.224,1.338C12.771,1.564 13.268,1.895 13.687,2.313C14.105,2.732 14.437,3.229 14.662,3.776C14.887,4.323 15.002,4.909 14.999,5.501ZM5.499,6.001C4.609,6.001 3.739,6.265 2.999,6.759C2.259,7.254 1.682,7.957 1.342,8.779C1.001,9.601 0.912,10.506 1.086,11.379C1.259,12.252 1.688,13.054 2.317,13.683C2.947,14.312 3.748,14.741 4.621,14.914C5.494,15.088 6.399,14.999 7.221,14.658C8.043,14.318 8.746,13.741 9.241,13.001C9.735,12.261 9.999,11.391 9.999,10.501C9.999,9.91 9.883,9.325 9.657,8.779C9.43,8.233 9.099,7.737 8.681,7.319C8.263,6.901 7.767,6.57 7.221,6.343C6.675,6.117 6.09,6.001 5.499,6.001Z" style="fill:rgb(197,197,197);fill-rule:nonzero;"/>
</svg>
