<?xml version="1.0" encoding="UTF-8" standalone="no"?>
<!DOCTYPE svg PUBLIC "-//W3C//DTD SVG 1.1//EN" "http://www.w3.org/Graphics/SVG/1.1/DTD/svg11.dtd">
<svg width="100%" height="100%" viewBox="0 0 16 16" version="1.1" xmlns="http://www.w3.org/2000/svg" xmlns:xlink="http://www.w3.org/1999/xlink" xml:space="preserve" xmlns:serif="http://www.serif.com/" style="fill-rule:evenodd;clip-rule:evenodd;stroke-linejoin:round;stroke-miterlimit:2;">
    <g transform="matrix(0.990115,0,0,0.990115,0.0790779,0.0790779)">
        <path d="M8,4C8.367,4 8.721,4.048 9.063,4.145C9.404,4.238 9.721,4.372 10.016,4.547C10.313,4.721 10.582,4.931 10.824,5.176C11.069,5.418 11.279,5.688 11.453,5.984C11.628,6.279 11.762,6.596 11.855,6.938C11.952,7.279 12,7.633 12,8C12,8.367 11.952,8.721 11.855,9.063C11.762,9.404 11.628,9.723 11.453,10.02C11.279,10.314 11.069,10.583 10.824,10.828C10.582,11.07 10.313,11.279 10.016,11.453C9.721,11.628 9.404,11.763 9.063,11.859C8.721,11.953 8.367,12 8,12C7.633,12 7.279,11.953 6.938,11.859C6.596,11.763 6.277,11.628 5.98,11.453C5.686,11.279 5.417,11.07 5.172,10.828C4.93,10.583 4.721,10.314 4.547,10.02C4.372,9.723 4.237,9.404 4.141,9.063C4.047,8.721 4,8.367 4,8C4,7.633 4.047,7.279 4.141,6.938C4.237,6.596 4.372,6.279 4.547,5.984C4.721,5.688 4.93,5.418 5.172,5.176C5.417,4.931 5.686,4.721 5.98,4.547C6.277,4.372 6.596,4.238 6.938,4.145C7.279,4.048 7.633,4 8,4Z" style="fill:none;fill-rule:nonzero;stroke:rgb(197,197,197);stroke-width:1.01px;"/>
    </g>
</svg>
