<?xml version="1.0" encoding="UTF-8" standalone="no"?>
<!DOCTYPE svg PUBLIC "-//W3C//DTD SVG 1.1//EN" "http://www.w3.org/Graphics/SVG/1.1/DTD/svg11.dtd">
<svg width="100%" height="100%" viewBox="0 0 24 24" version="1.1" xmlns="http://www.w3.org/2000/svg" xmlns:xlink="http://www.w3.org/1999/xlink" xml:space="preserve" xmlns:serif="http://www.serif.com/" style="fill-rule:evenodd;clip-rule:evenodd;stroke-linejoin:round;stroke-miterlimit:2;">
    <path d="M7,21C6.45,21 5.979,20.804 5.588,20.413C5.196,20.021 5,19.55 5,19L5,6L4,6L4,4L9,4L9,3L15,3L15,4L20,4L20,6L19,6L19,19C19,19.55 18.804,20.021 18.413,20.413C18.021,20.804 17.55,21 17,21L7,21ZM17,6L7,6L7,19L17,19L17,6ZM9,17L11,17L11,8L9,8L9,17ZM13,17L15,17L15,8L13,8L13,17ZM7,6L7,19L7,6Z" style="fill:rgb(191,191,191);fill-rule:nonzero;"/>
</svg>
